<?xml version="1.0" encoding="UTF-8"?>
<svg version="1.1" xmlns="http://www.w3.org/2000/svg" width="1616" height="446">
<path d="M0 0 C533.28 0 1066.56 0 1616 0 C1616 147.18 1616 294.36 1616 446 C1082.72 446 549.44 446 0 446 C0 298.82 0 151.64 0 0 Z " fill="#FBFCFC" transform="translate(0,0)"/>
<path d="M0 0 C1.45970578 -0.00186742 2.91941012 -0.00591128 4.37910461 -0.01194763 C8.31501813 -0.02186274 12.25020327 -0.00085375 16.18601131 0.02653241 C20.31647687 0.05048348 24.44693099 0.04741837 28.57745361 0.0478363 C35.50732651 0.05245318 42.43692325 0.07602393 49.36669922 0.11230469 C57.37048149 0.15409766 65.37401571 0.171624 73.37790084 0.17492443 C81.91745136 0.17852707 90.45691317 0.19739806 98.99642658 0.22204471 C101.4507202 0.22826292 103.90500707 0.23190565 106.35930634 0.23507881 C110.21718717 0.24099153 114.07489204 0.25733818 117.9326992 0.28168297 C119.34599891 0.28910397 120.75932074 0.29319367 122.17263985 0.29366302 C124.10557959 0.29492702 126.03849614 0.30975516 127.97137451 0.32521057 C129.0516328 0.32986108 130.1318911 0.33451159 131.24488449 0.33930302 C134.56131351 0.62326112 137.21368576 1.31642123 140.28222656 2.59936523 C144.0045797 7.61655499 143.82232046 13.0628865 143.95483398 19.0703125 C144.00414582 20.64140321 144.00414582 20.64140321 144.05445385 22.24423313 C144.44182404 35.84708727 144.48669513 49.45676506 144.52050781 63.06420898 C144.5245731 64.47935056 144.52869041 65.89449198 144.53285789 67.30963326 C144.55173623 73.94051683 144.56602573 80.57139021 144.57446986 87.20229524 C144.58430955 94.79479181 144.61087457 102.38700216 144.65097076 109.97939771 C144.68117026 115.90439169 144.69594057 121.82930325 144.69925088 127.75437266 C144.70158787 131.27167757 144.71037825 134.7886702 144.73571205 138.30589104 C144.76342278 142.21232226 144.75914995 146.11837176 144.75219727 150.02490234 C144.77141235 151.74320251 144.77141235 151.74320251 144.79101562 153.49621582 C144.7268628 163.39589485 142.19193469 170.37557946 135.28222656 177.59936523 C134.1507591 178.58114844 133.01047772 179.55281503 131.86425781 180.51733398 C128.24920785 183.65713131 124.85170362 186.9790106 121.49707031 190.39233398 C120.98788055 190.90940918 120.4786908 191.42648437 119.95407104 191.95922852 C117.83910574 194.11054137 115.7271837 196.26464966 113.62475586 198.42822266 C112.06825572 200.02735351 110.50219776 201.61661964 108.93457031 203.20483398 C108.01667725 204.14480225 107.09878418 205.08477051 106.15307617 206.05322266 C98.35270859 212.97133078 89.71254121 215.68899905 79.38897705 215.75999451 C78.2340274 215.77004013 77.07907776 215.78008575 75.88912964 215.79043579 C74.63600983 215.79626678 73.38289001 215.80209778 72.09179688 215.80810547 C70.74754601 215.81765512 69.40329755 215.82754675 68.05905151 215.8377533 C63.65951407 215.8690035 59.25995847 215.88938663 54.86035156 215.90795898 C54.1099356 215.91125631 53.35951963 215.91455363 52.58636379 215.91795087 C45.50048081 215.94871994 38.41459325 215.9754058 31.32866287 215.99236965 C22.29036169 216.01426838 13.25265491 216.05625046 4.21459126 216.12580723 C-2.15505654 216.17315146 -8.52454452 216.19731676 -14.89436269 216.20456654 C-18.692139 216.20950592 -22.48924351 216.22442202 -26.28682709 216.26431084 C-29.86253513 216.30137808 -33.43719316 216.30952266 -37.01305771 216.2963047 C-38.93633229 216.2963837 -40.85953579 216.32610226 -42.78256226 216.35699463 C-52.08104261 216.27971004 -58.0618537 213.83606528 -64.92985153 207.58646297 C-67.65716171 204.5553284 -67.8491698 201.90925451 -67.9230957 197.9921875 C-67.94301575 197.03914734 -67.96293579 196.08610718 -67.98345947 195.10418701 C-68.00019714 194.05200989 -68.01693481 192.99983276 -68.03417969 191.91577148 C-68.05518738 190.79342102 -68.07619507 189.67107056 -68.09783936 188.51470947 C-68.16547723 184.73050778 -68.22405469 180.94625323 -68.28027344 177.16186523 C-68.30012299 175.8571225 -68.31997253 174.55237976 -68.34042358 173.20809937 C-68.4974605 162.67217856 -68.61364505 152.13592733 -68.71777344 141.59936523 C-68.72660553 140.72218842 -68.73543762 139.8450116 -68.74453735 138.94125366 C-68.8672281 126.6502847 -68.95508106 114.35957034 -69.00387573 102.06808472 C-69.01942146 98.30521314 -69.04423952 94.54257642 -69.07693481 90.77981567 C-69.11521985 86.29666898 -69.13339146 81.81386338 -69.13678741 77.33055878 C-69.14123343 75.67221535 -69.15246365 74.01387359 -69.17110443 72.35562897 C-69.37766749 53.01977336 -62.47033836 43.39701091 -49.28808594 29.79858398 C-47.19673442 27.67409496 -45.09691509 25.55850349 -42.99169922 23.44775391 C-40.84192305 21.28601011 -38.71155949 19.10625501 -36.58105469 16.92553711 C-35.19288434 15.52790702 -33.8035984 14.1313839 -32.41308594 12.73608398 C-31.78983429 12.09330002 -31.16658264 11.45051605 -30.52444458 10.78825378 C-21.33585638 1.69060665 -12.68955792 -0.14401828 0 0 Z " fill="#3774CF" transform="translate(114.7177734375,170.400634765625)"/>
<path d="M0 0 C14.44851666 -0.10410642 28.89641198 -0.13948766 43.34527588 -0.13848877 C49.68492467 -0.13838531 56.02446603 -0.15227662 62.36408901 -0.16926098 C67.30461639 -0.18036182 72.24511702 -0.18240892 77.18565559 -0.18187904 C79.5263514 -0.18305279 81.86704804 -0.18744024 84.20773125 -0.19521141 C87.45173908 -0.20501561 90.69550235 -0.20213655 93.93951416 -0.19610596 C95.36136269 -0.20453522 95.36136269 -0.20453522 96.81193542 -0.21313477 C103.91653034 -0.17959898 110.65066763 0.44349798 116.73077393 4.48431396 C117.36628174 4.8955249 118.00178955 5.30673584 118.65655518 5.73040771 C121.86133346 8.125109 123.8997141 10.31599901 125.41827393 14.04681396 C125.67833614 16.86929512 125.67833614 16.86929512 125.69242859 20.19308472 C125.70240372 21.45466904 125.71237885 22.71625336 125.72265625 24.0160675 C125.72355203 25.41189563 125.72421561 26.80772391 125.72467041 28.20355225 C125.73229326 29.67558716 125.74072098 31.14761809 125.74989319 32.61964417 C125.77183946 36.6178928 125.78063786 40.61606494 125.78571963 44.61436701 C125.78936466 47.11506079 125.79560565 49.61573459 125.80272102 52.11642075 C125.82722109 60.84876127 125.84026751 69.5810424 125.84381104 78.31341553 C125.8474413 86.43866944 125.87729851 94.56354445 125.91921562 102.68868268 C125.95398219 109.6740129 125.96936062 116.65921802 125.97005707 123.64463413 C125.97084807 127.81231122 125.97950357 131.97960278 126.00805473 136.14719009 C126.03434322 140.07244222 126.03638132 143.99699229 126.02039909 147.92229271 C126.0185928 149.35651246 126.02520088 150.79077356 126.0412178 152.22490501 C126.16448779 163.98733194 123.86686172 172.06839455 115.60577393 180.65228271 C115.14130859 181.14012741 114.67684326 181.62797211 114.19830322 182.13059998 C112.61755487 183.78199979 111.0186347 185.41442513 109.41827393 187.04681396 C108.18091412 188.32590549 106.94395268 189.60538247 105.70733643 190.88519287 C102.33584531 194.36073265 98.93493246 197.80580537 95.52081299 201.23944092 C94.11463751 202.65720934 92.7129595 204.07945211 91.31573486 205.50604248 C68.48565005 228.81286378 68.48565005 228.81286378 52.90826416 229.38739014 C51.34771805 229.38692493 49.78711018 229.37056769 48.22686768 229.33978271 C47.3961525 229.33553787 46.56543732 229.33129303 45.70954895 229.32691956 C43.0912751 229.3103071 40.47380978 229.27269026 37.85577393 229.23431396 C36.06607161 229.21924449 34.27635706 229.20556008 32.4866333 229.19329834 C28.13020838 229.16046116 23.77437757 229.10880333 19.41827393 229.04681396 C18.57050012 226.08107935 18.27126956 223.39501903 18.21295166 220.31463623 C18.19302155 219.37199417 18.17309143 218.42935211 18.15255737 217.45814514 C18.12746597 215.9261573 18.12746597 215.9261573 18.10186768 214.36322021 C18.08095062 213.29166183 18.06003357 212.22010345 18.03848267 211.11607361 C17.97210335 207.61389527 17.91326971 204.11164875 17.85577393 200.60931396 C17.82500259 198.8269635 17.82500259 198.8269635 17.79360962 197.00860596 C17.54263478 182.38324747 17.30566607 167.75613114 17.24203491 153.12857056 C17.23460806 151.59072995 17.22399815 150.05290096 17.20999146 148.5151062 C17.04666483 129.04479614 17.04666483 129.04479614 22.16827393 120.92181396 C22.6916333 120.0852124 23.21499268 119.24861084 23.75421143 118.38665771 C25.30050272 116.21241244 26.93535928 114.39065767 28.79327393 112.48431396 C31.29022636 109.74614158 31.81448176 107.93881092 31.85577393 104.23431396 C31.71489672 101.75402135 31.53310176 100.27646964 30.41827393 98.04681396 C22.56631904 97.27701447 16.5715302 100.02406942 9.41827393 103.04681396 C7.6078381 103.80178309 5.79553321 104.55229734 3.98077393 105.29681396 C3.23956299 105.61134521 2.49835205 105.92587646 1.73468018 106.24993896 C-3.66421729 108.10723253 -9.11050785 108.19160305 -14.76409912 108.1762085 C-15.96321426 108.17883698 -15.96321426 108.17883698 -17.18655396 108.18151855 C-19.82220656 108.18590781 -22.45779156 108.18300572 -25.09344482 108.17962646 C-26.94507357 108.1803012 -28.79670224 108.18127264 -30.64833069 108.18252563 C-34.53442221 108.18399938 -38.42049074 108.1818616 -42.30657959 108.17718506 C-47.2324826 108.17153979 -52.15833048 108.17473545 -57.08423138 108.18075752 C-60.91523127 108.18441646 -64.74621868 108.18319955 -68.57721901 108.18062973 C-70.38967712 108.17997238 -72.20213644 108.18074608 -74.01459312 108.18310928 C-86.23629054 108.19552966 -98.38324276 107.80491332 -110.58172607 107.04681396 C-110.74659238 105.61116321 -110.90993908 104.17533789 -111.07264709 102.73944092 C-111.16377431 101.9398848 -111.25490152 101.14032867 -111.34879017 100.31654358 C-111.83596133 95.56954329 -111.76623928 90.81374347 -111.76922607 86.04681396 C-111.78147217 85.01814209 -111.79371826 83.98947021 -111.80633545 82.92962646 C-111.83717313 66.77068352 -106.09616551 57.07344748 -94.70114136 45.61044312 C-93.70611468 44.62257604 -92.71056761 43.63523289 -91.71453857 42.64837646 C-90.66935031 41.6004843 -89.62475561 40.55199979 -88.58071899 39.50296021 C-86.40697583 37.32336938 -84.22629237 35.15105047 -82.04022217 32.98382568 C-79.25737516 30.22382234 -76.4929574 27.44616251 -73.7334919 24.66280556 C-71.58558259 22.50035798 -69.42813301 20.34763033 -67.26778793 18.19761276 C-66.24513202 17.17759904 -65.22536611 16.15467829 -64.20874405 15.12865067 C-53.53068484 4.37348134 -46.80167787 0.3078 -31.5255146 0.25275612 C-30.72808783 0.2505374 -29.93066105 0.24831867 -29.10906982 0.24603271 C-27.41006598 0.22377246 -25.71108537 0.19967832 -24.01213074 0.17393494 C-19.24613481 0.1100507 -14.48049551 0.0813764 -9.71413422 0.0613327 C-6.47603263 0.04632407 -3.2380468 0.02400583 0 0 Z " fill="#3774CF" transform="translate(253.58172607421875,48.95318603515625)"/>
<path d="M0 0 C10.21610298 7.63213054 16.61246282 17.3334822 20.64453125 29.4296875 C20.64453125 37.6796875 20.64453125 45.9296875 20.64453125 54.4296875 C-4.10546875 54.4296875 -28.85546875 54.4296875 -54.35546875 54.4296875 C-48.64573899 71.25307597 -48.64573899 71.25307597 -36.35546875 81.4296875 C-27.45148741 82.62378003 -17.56253637 82.10127038 -9.35546875 78.4296875 C-8.03546875 75.1296875 -6.71546875 71.8296875 -5.35546875 68.4296875 C2.56453125 68.4296875 10.48453125 68.4296875 18.64453125 68.4296875 C16.35026173 79.90103511 10.2750983 89.07758527 1.08203125 96.1171875 C-8.4616725 102.37627829 -17.42795753 103.7712152 -28.60546875 103.8671875 C-29.98943848 103.8825354 -29.98943848 103.8825354 -31.40136719 103.89819336 C-44.67203824 103.72784273 -56.08673882 97.7992164 -65.66796875 88.7421875 C-78.68640974 74.90747771 -81.14739167 60.298012 -80.7109375 41.9609375 C-80.39748507 35.27093474 -79.03372623 29.60091715 -76.35546875 23.4296875 C-76.08992187 22.71425781 -75.824375 21.99882812 -75.55078125 21.26171875 C-70.68452231 9.65221528 -59.66764409 1.01082233 -48.390625 -3.84765625 C-32.51415334 -9.83596301 -14.43384236 -9.62256157 0 0 Z " fill="#0D244E" transform="translate(597.35546875,229.5703125)"/>
<path d="M0 0 C9.6864954 8.02829873 15.4746942 19.21518303 18.4921875 31.28515625 C18.4921875 38.21515625 18.4921875 45.14515625 18.4921875 52.28515625 C-6.2578125 52.28515625 -31.0078125 52.28515625 -56.5078125 52.28515625 C-52.0960343 68.08103403 -52.0960343 68.08103403 -41.5078125 78.28515625 C-32.6488335 80.499901 -22.8640048 80.07350463 -14.5078125 76.28515625 C-12.15043888 74.31886765 -11.42786267 73.10708618 -10.1328125 70.22265625 C-8.17558983 66.68459988 -7.29744933 66.40722749 -3.5078125 65.28515625 C3.17919318 64.78574696 9.89922634 65.05855883 16.4921875 66.28515625 C13.13512722 78.47658568 7.02580121 88.29747335 -4.07421875 94.78515625 C-16.87907861 101.04779513 -32.14428176 103.73201265 -46.1328125 100.12890625 C-51.42797153 98.24773133 -56.47005056 95.76121235 -61.5078125 93.28515625 C-61.5078125 92.62515625 -61.5078125 91.96515625 -61.5078125 91.28515625 C-62.09820313 91.01703125 -62.68859375 90.74890625 -63.296875 90.47265625 C-72.17732331 85.70294549 -77.43985724 75.74472593 -80.8828125 66.66015625 C-85.27919245 51.06963238 -84.13204673 31.88513934 -77.0703125 17.3203125 C-69.81742748 4.88928601 -59.83761103 -3.63834563 -46.5078125 -8.71484375 C-31.03212942 -12.13599606 -13.14931661 -8.99151089 0 0 Z " fill="#0E254E" transform="translate(1361.5078125,231.71484375)"/>
<path d="M0 0 C8.58 0 17.16 0 26 0 C26.66 27.39 27.32 54.78 28 83 C38.35272136 70.36561697 38.35272136 70.36561697 48.0625 57.3125 C49.59854431 55.14628367 51.13706046 52.98224828 52.68798828 50.82666016 C53.78212729 49.30333525 54.85993411 47.7682964 55.93359375 46.23046875 C59.35803158 42.53414739 62.55226453 40.31430615 67.54394531 39.67333984 C70.41543601 39.57082268 73.25313331 39.60145872 76.125 39.6875 C77.10082031 39.69716797 78.07664062 39.70683594 79.08203125 39.71679688 C83.53093637 39.78659552 87.64490831 40.03268867 92 41 C87.92763593 46.68416489 83.52378885 51.83129126 78.6875 56.875 C77.3638035 58.27009382 76.04088522 59.66592646 74.71875 61.0625 C74.08324219 61.7328125 73.44773437 62.403125 72.79296875 63.09375 C69.68085314 66.40249165 66.65623004 69.78633196 63.63671875 73.1796875 C62.46118401 74.48708413 61.24321516 75.75678484 60 77 C59.29201022 81.95592846 60.77487807 85.05498987 63.125 89.265625 C64 91 64 91 64 93 C64.66 93 65.32 93 66 93 C66.45761719 94.01320313 66.91523437 95.02640625 67.38671875 96.0703125 C70.87915217 103.04903879 75.45857062 109.41534633 79.8125 115.875 C80.69897133 117.19894859 81.58504188 118.52316562 82.47070312 119.84765625 C86.81548198 126.33166869 91.19513347 132.7662984 95.8269043 139.05126953 C97 141 97 141 97 144 C91.5279602 145.82887083 86.69020883 146.33648961 80.9375 146.3125 C79.77250977 146.33666992 79.77250977 146.33666992 78.58398438 146.36132812 C72.34076552 146.36661451 68.25418361 145.1192244 63.5859375 140.73046875 C53 128.55477032 53 128.55477032 53 125 C52.34 125 51.68 125 51 125 C47.33333333 117.66666667 43.66666667 110.33333333 40 103 C36.98112258 102.70852218 35.49808664 102.63133745 33.015625 104.46875 C32.43296875 105.1390625 31.8503125 105.809375 31.25 106.5 C30.36054687 107.47453125 30.36054687 107.47453125 29.453125 108.46875 C25.65837102 115.07896661 26.69731917 124.57159988 26.4375 132 C26.293125 135.96 26.14875 139.92 26 144 C17.42 144 8.84 144 0 144 C0 96.48 0 48.96 0 0 Z " fill="#0C244E" transform="translate(635,185)"/>
<path d="M0 0 C8.25 0 16.5 0 25 0 C25.61758325 4.94066599 26.12599016 9.28056505 26.15771484 14.16552734 C26.16797699 15.31387054 26.17823914 16.46221375 26.18881226 17.64535522 C26.19611359 18.86324738 26.20341492 20.08113953 26.2109375 21.3359375 C26.23900021 23.95313132 26.26766463 26.57031874 26.296875 29.1875 C26.33920945 33.28414612 26.3760942 37.38075048 26.40136719 41.47753906 C26.42652297 45.4513832 26.4749377 49.42480837 26.5234375 53.3984375 C26.52669037 54.61228119 26.52994324 55.82612488 26.53329468 57.07675171 C26.6467522 64.98449955 26.96412218 73.11028155 32 79.5625 C37.38355217 83.43192812 44.68874855 82.53697941 51 82 C54.02925817 80.96924202 56.25304511 79.69043378 59 78 C59.66 78 60.32 78 61 78 C65.36526376 69.58127703 66.1470769 62.05408513 66.28125 52.6953125 C66.29965942 51.69853485 66.31806885 50.7017572 66.33703613 49.67477417 C66.39554776 46.49157388 66.44836036 43.30831867 66.5 40.125 C66.72116327 26.71878521 67.034266 13.37541584 68 0 C76.58 0 85.16 0 94 0 C94 33.99 94 67.98 94 103 C85.42 103 76.84 103 68 103 C66.8422494 99.52674819 66.93133348 96.63932552 67 93 C65.71416016 94.03060547 65.71416016 94.03060547 64.40234375 95.08203125 C63.24771489 95.99259222 62.09274883 96.90272573 60.9375 97.8125 C60.37611328 98.26431641 59.81472656 98.71613281 59.23632812 99.18164062 C49.44620052 106.84591195 39.15278719 107.87610206 27 107 C17.92010843 104.96040325 10.10111231 99.25785467 4.625 91.8125 C-1.53433667 81.39914256 -1.42793142 69.90403031 -1.328125 58.18359375 C-1.32505962 56.59367554 -1.32318943 55.00375462 -1.32244873 53.41383362 C-1.31788181 50.10838279 -1.30358704 46.80318052 -1.28125 43.49780273 C-1.25276086 39.26101674 -1.24201345 35.02442366 -1.2375679 30.78755093 C-1.23341693 27.51650573 -1.22360549 24.24549936 -1.21169281 20.97447395 C-1.20600134 19.41115692 -1.20123895 17.84783622 -1.19742584 16.28451347 C-1.1905616 14.1094489 -1.17693386 11.93453721 -1.16113281 9.75952148 C-1.15430481 8.52330551 -1.14747681 7.28708954 -1.14044189 6.01341248 C-1 3 -1 3 0 0 Z " fill="#122852" transform="translate(984,226)"/>
<path d="M0 0 C0.8245166 0.00273926 1.6490332 0.00547852 2.49853516 0.00830078 C11.12894002 0.15509359 18.72716157 2.03135692 26.6875 5.3125 C26.6875 5.9725 26.6875 6.6325 26.6875 7.3125 C27.6775 7.5909375 27.6775 7.5909375 28.6875 7.875 C36.97717994 11.84713831 41.45323582 18.41117837 45.6875 26.3125 C46.30625 27.3025 46.925 28.2925 47.5625 29.3125 C48.6875 32.3125 48.6875 32.3125 48.6875 42.3125 C40.7675 42.3125 32.8475 42.3125 24.6875 42.3125 C21.375 36 21.375 36 20.3503418 34.02612305 C17.86637513 29.35539794 16.37726778 26.91826581 11.375 25.125 C4.32297742 23.58400247 -4.4241026 22.88965395 -11.3125 25.375 C-17.44556008 29.33593463 -20.96407812 34.39083551 -23.3125 41.3125 C-25.69602314 55.24436063 -25.73041265 69.97425105 -17.375 82 C-15.03962408 85.03794026 -13.00512922 86.25818373 -9.3125 87.3125 C-6.37009567 87.63772276 -3.45842014 87.68261409 -0.5 87.6875 C0.65338867 87.72423828 0.65338867 87.72423828 1.83007812 87.76171875 C7.58165972 87.79084068 11.90901998 86.57019907 16.6875 83.3125 C18.53268328 81.49834437 18.53268328 81.49834437 19.5625 79.4375 C19.93117188 78.80070312 20.29984375 78.16390625 20.6796875 77.5078125 C21.89375039 74.8632259 22.76729421 72.07311738 23.6875 69.3125 C32.2675 69.3125 40.8475 69.3125 49.6875 69.3125 C47.00082228 82.74588858 42.45445696 95.33870421 30.6875 103.3125 C20.4982525 109.07437031 10.05866314 111.55237517 -1.5625 111.625 C-2.67927124 111.63333862 -2.67927124 111.63333862 -3.81860352 111.6418457 C-16.50780268 111.47686778 -29.39693976 106.05389933 -38.57421875 97.25 C-52.12034941 82.15139144 -54.18741267 65.28556552 -53.45605469 45.71630859 C-52.6493025 32.20732547 -45.86173932 21.87289779 -36.25390625 12.67578125 C-32.91231557 9.99097068 -29.51066961 7.85251254 -25.75 5.8125 C-25.14929687 5.48612549 -24.54859375 5.15975098 -23.9296875 4.82348633 C-16.2803289 0.94408025 -8.49490791 -0.05766961 0 0 Z " fill="#0E254F" transform="translate(1145.3125,221.6875)"/>
<path d="M0 0 C6.52662278 4.19782782 12.73214373 10.84933389 14.625 18.5390625 C14.90355463 20.73268024 15.11336127 22.79191967 15 25 C14 26 14 26 11.86694336 26.11352539 C10.49227905 26.10567017 10.49227905 26.10567017 9.08984375 26.09765625 C8.10048828 26.09443359 7.11113281 26.09121094 6.09179688 26.08789062 C5.05087891 26.07951172 4.00996094 26.07113281 2.9375 26.0625 C1.89271484 26.05798828 0.84792969 26.05347656 -0.22851562 26.04882812 C-2.8190666 26.03699913 -5.40950559 26.02051689 -8 26 C-12 19.25 -12 19.25 -12 17 C-22.01993253 15.64136508 -31.99341133 15.43033903 -42 17 C-42 21.62 -42 26.24 -42 31 C-40.68 31.33 -39.36 31.66 -38 32 C-36.30686095 32.53359534 -34.61401046 33.06816879 -32.92407227 33.61181641 C-25.25695895 36.07486596 -17.54443592 38.24200347 -9.73608398 40.21191406 C7.21659657 44.5346556 7.21659657 44.5346556 13 53 C13.65355469 53.95326172 13.65355469 53.95326172 14.3203125 54.92578125 C18.62912779 62.68466193 18.42140988 73.97263638 16.046875 82.37109375 C15.1366623 84.65681445 14.16594243 86.83467834 13 89 C12.34 89 11.68 89 11 89 C10.7628125 89.5878125 10.525625 90.175625 10.28125 90.78125 C6.21265132 97.82687211 -3.54042694 101.66809985 -11 104 C-22.67831326 107.09070813 -38.24634675 106.39068442 -49 101 C-57.80989715 95.70549373 -64.373632 89.25273601 -69 80 C-69.06996014 78.29297265 -69.08440154 76.58331997 -69.0625 74.875 C-69.05347656 73.96492188 -69.04445313 73.05484375 -69.03515625 72.1171875 C-69.02355469 71.41851562 -69.01195312 70.71984375 -69 70 C-49.19766942 68.18873399 -49.19766942 68.18873399 -44.15625 72.34375 C-42.4375 75.3125 -42.4375 75.3125 -41.24609375 78.30078125 C-39.65612985 81.74487232 -38.5016815 82.57356571 -35 84 C-32.13395555 84.29088212 -29.54374869 84.42810174 -26.6875 84.375 C-25.93146484 84.36774902 -25.17542969 84.36049805 -24.39648438 84.35302734 C-19.03250642 84.21973921 -14.78064408 83.58951554 -10 81 C-8.64908472 78.29816945 -8.66141942 75.88191794 -8.4375 72.875 C-8.35371094 71.77929688 -8.26992187 70.68359375 -8.18359375 69.5546875 C-8.09271484 68.29011719 -8.09271484 68.29011719 -8 67 C-9.1446875 66.62875 -9.1446875 66.62875 -10.3125 66.25 C-12.3146109 65.57131834 -14.31318181 64.8790101 -16.28515625 64.1171875 C-21.79328745 62.00698339 -27.27303279 60.3693749 -33 59 C-45.03174222 56.09456754 -57.80049516 52.90210733 -65 42 C-68.44826981 34.47776625 -69.24766669 26.13735557 -68 18 C-64.35798009 8.85993079 -57.01856954 1.97042743 -48.27734375 -2.34375 C-32.56637655 -8.82249936 -14.98631749 -7.94116706 0 0 Z " fill="#0F244F" transform="translate(1533,228)"/>
<path d="M0 0 C6.48942657 5.7925754 11.52364465 12.66482012 12.3125 21.5 C12 24 12 24 11 25 C7.78286544 25.38969899 4.549874 25.41821371 1.3125 25.5 C0.41337891 25.55414063 -0.48574219 25.60828125 -1.41210938 25.6640625 C-7.97851473 25.79895564 -7.97851473 25.79895564 -10.94775391 23.4765625 C-12.99562027 21.11726381 -14.60403301 18.79193398 -16 16 C-24.56944759 13.54039621 -34.59501744 14.31040558 -43 17 C-42.67 21.29 -42.34 25.58 -42 30 C-33.64780839 33.10106124 -25.37498552 36.04742714 -16.6875 38.0625 C-5.24898975 40.76558881 7.24275438 44.65054047 14 55 C17.31275688 64.42452758 16.56735292 73.79219095 13 83 C7.78221268 92.2977394 -1.15159189 99.78472352 -11.421875 102.68359375 C-25.70289473 105.74683023 -42.22582152 105.34676858 -54.9453125 97.49609375 C-62.55820751 91.95286411 -66.91292992 85.40041393 -71 77 C-71.33 76.34 -71.66 75.68 -72 75 C-72 73.02 -72 71.04 -72 69 C-64.08 69 -56.16 69 -48 69 C-43 78 -43 78 -43 80 C-35.13803793 83.18728192 -27.0580559 84.5369697 -18.62890625 82.3984375 C-15.8725744 81.22477362 -13.49048704 79.66032469 -11 78 C-10.41407366 74.88389446 -10.41407366 74.88389446 -10.3125 71.375 C-10.21388672 69.59222656 -10.21388672 69.59222656 -10.11328125 67.7734375 C-10.07589844 66.85820312 -10.03851562 65.94296875 -10 65 C-10.66515625 64.88527344 -11.3303125 64.77054687 -12.015625 64.65234375 C-15.6725589 63.85298778 -19.19332506 62.71492116 -22.75 61.5625 C-27.07786613 60.17947832 -31.35118837 58.82814297 -35.8125 57.9375 C-46.88593491 55.64281482 -60.25778924 50.64183287 -67 41 C-70.29041555 32.77396112 -70.69908309 21.48397941 -67.6875 13.125 C-63.09634385 4.5267217 -52.96072068 -1.74039405 -44 -5 C-28.46129244 -9.33679183 -13.63695717 -9.66984235 0 0 Z " fill="#0F244E" transform="translate(806,229)"/>
<path d="M0 0 C34.65 0 69.3 0 105 0 C105 7.26 105 14.52 105 22 C91.8 22 78.6 22 65 22 C65 61.93 65 101.86 65 143 C56.75 143 48.5 143 40 143 C40 103.07 40 63.14 40 22 C26.8 22 13.6 22 0 22 C0 14.74 0 7.48 0 0 Z " fill="#0E2651" transform="translate(428,185)"/>
<path d="M0 0 C7.92 0 15.84 0 24 0 C24 9.57 24 19.14 24 29 C31.92 29 39.84 29 48 29 C48 35.27 48 41.54 48 48 C40.08 48 32.16 48 24 48 C24.21695901 55.7237406 24.44239761 63.44625422 24.68969727 71.16894531 C24.7712276 73.79542151 24.84776718 76.42205762 24.91918945 79.04882812 C25.02279886 82.82735608 25.14442033 86.60494285 25.26953125 90.3828125 C25.29779495 91.55490265 25.32605865 92.7269928 25.35517883 93.93460083 C25.57493696 101.91368754 25.57493696 101.91368754 29 109 C31.65918166 109.88639389 33.48064641 110.17989025 36.23046875 110.31640625 C36.95387451 110.35451416 37.67728027 110.39262207 38.42260742 110.43188477 C39.33502197 110.47498779 40.24743652 110.51809082 41.1875 110.5625 C44.095625 110.706875 47.00375 110.85125 50 111 C50 117.93 50 124.86 50 132 C37.74705564 134.72287652 22.25133799 137.1355404 11 130 C10.36191406 129.59910156 9.72382812 129.19820312 9.06640625 128.78515625 C2.85273017 124.17500948 -1.38113646 117.12836586 -2.52362061 109.50698853 C-2.69044611 105.56480672 -2.67721713 101.64931727 -2.5859375 97.70703125 C-2.57471847 96.26545496 -2.56619111 94.82385547 -2.56021118 93.38224792 C-2.5375243 89.62521926 -2.47878413 85.86962784 -2.4119873 82.11315918 C-2.35012256 78.26509026 -2.32310293 74.41678442 -2.29296875 70.56835938 C-2.22901288 63.04484812 -2.12366263 55.52281018 -2 48 C-6.95 48 -11.9 48 -17 48 C-17 41.73 -17 35.46 -17 29 C-10.07 28.01 -10.07 28.01 -3 27 C-2.09531713 21.57190276 -1.66893923 16.30689909 -1.39453125 10.83398438 C-1.18802396 7.08480895 -0.74136756 3.70683781 0 0 Z " fill="#0F2651" transform="translate(847,197)"/>
<path d="M0 0 C1.00023193 0.00523682 2.00046387 0.01047363 3.03100586 0.01586914 C4.00303955 0.0183667 4.97507324 0.02086426 5.9765625 0.0234375 C7.84235962 0.03709351 7.84235962 0.03709351 9.74584961 0.05102539 C13.68522461 0.07165039 17.62459961 0.09227539 21.68334961 0.11352539 C21.68334961 9.68352539 21.68334961 19.25352539 21.68334961 29.11352539 C29.93334961 29.11352539 38.18334961 29.11352539 46.68334961 29.11352539 C46.68334961 35.38352539 46.68334961 41.65352539 46.68334961 48.11352539 C38.43334961 48.11352539 30.18334961 48.11352539 21.68334961 48.11352539 C21.80423204 53.83872306 21.92730671 59.56379432 22.05566406 65.28881836 C22.09856659 67.23019769 22.14026563 69.17160405 22.18066406 71.11303711 C22.01208067 90.90593961 22.01208067 90.90593961 25.68334961 110.11352539 C32.61334961 110.44352539 39.54334961 110.77352539 46.68334961 111.11352539 C46.68334961 118.04352539 46.68334961 124.97352539 46.68334961 132.11352539 C39.94092954 133.4620094 34.3280909 134.45125909 27.62084961 134.36352539 C26.83790527 134.35385742 26.05496094 134.34418945 25.24829102 134.33422852 C11.28075725 134.04305625 11.28075725 134.04305625 5.24584961 128.05102539 C4.60776367 127.33817383 3.96967773 126.62532227 3.31225586 125.89086914 C1.79094029 124.01847472 1.79094029 124.01847472 -0.31665039 123.11352539 C-5.08211662 115.21627436 -4.8445987 106.84885106 -4.70727539 97.91821289 C-4.69979827 96.47519726 -4.69411231 95.03217134 -4.69012451 93.58914185 C-4.67498351 89.82424998 -4.63580485 86.05999318 -4.59130859 82.29534912 C-4.55010379 78.44055772 -4.53206017 74.58566189 -4.51196289 70.73071289 C-4.46929615 63.19132982 -4.39904463 55.65259815 -4.31665039 48.11352539 C-9.59665039 48.11352539 -14.87665039 48.11352539 -20.31665039 48.11352539 C-20.31665039 41.84352539 -20.31665039 35.57352539 -20.31665039 29.11352539 C-14.70665039 29.11352539 -9.09665039 29.11352539 -3.31665039 29.11352539 C-3.32825195 27.10387695 -3.33985352 25.09422852 -3.35180664 23.02368164 C-3.35875779 21.08431115 -3.36567435 19.14494036 -3.37158203 17.20556641 C-3.37662096 15.85432153 -3.38345216 14.50308213 -3.39208984 13.15185547 C-3.40417458 11.21332105 -3.40934867 9.27474739 -3.41430664 7.33618164 C-3.41954346 6.16837158 -3.42478027 5.00056152 -3.43017578 3.79736328 C-3.27634004 0.16055413 -3.27634004 0.16055413 0 0 Z " fill="#102751" transform="translate(1222.316650390625,196.886474609375)"/>
<path d="M0 0 C1.5673288 -0.01925285 1.5673288 -0.01925285 3.1663208 -0.03889465 C4.30478455 -0.04628159 5.44324829 -0.05366852 6.61621094 -0.0612793 C7.779328 -0.06935104 8.94244507 -0.07742279 10.14080811 -0.08573914 C12.60899353 -0.09960105 15.07719829 -0.11031372 17.54541016 -0.11816406 C21.32068298 -0.13536183 25.09507709 -0.17922894 28.87011719 -0.22338867 C31.26464198 -0.23351629 33.65917424 -0.24203217 36.05371094 -0.2487793 C37.74926117 -0.27504143 37.74926117 -0.27504143 39.47906494 -0.30183411 C43.8209639 -0.28982221 47.26194196 -0.15524893 51.31860352 1.4519043 C54.31648811 6.03642106 53.75042278 10.85628669 53.65917969 16.2043457 C53.6556826 17.9759481 53.6556826 17.9759481 53.65211487 19.78334045 C53.64237248 22.28076396 53.62057446 24.77816519 53.58764648 27.27539062 C53.53831906 31.09644326 53.52617052 34.91620682 53.52050781 38.73754883 C53.50641856 41.1639948 53.49021299 43.5904296 53.47167969 46.0168457 C53.46363564 47.73108986 53.46363564 47.73108986 53.45542908 49.47996521 C53.43944168 50.54779739 53.42345428 51.61562958 53.40698242 52.71582031 C53.39102272 54.1200248 53.39102272 54.1200248 53.3747406 55.55259705 C53.0713652 58.45672377 52.45999575 60.59259824 51.10058594 63.17700195 C48.11560288 64.17199631 46.10832315 64.31491002 42.98999023 64.33813477 C41.42772957 64.35254608 41.42772957 64.35254608 39.83390808 64.36724854 C38.1464019 64.37362335 38.1464019 64.37362335 36.42480469 64.38012695 C34.68793144 64.38867706 34.68793144 64.38867706 32.91596985 64.3973999 C30.46392735 64.40685191 28.01187214 64.41338468 25.55981445 64.41723633 C21.81341308 64.42693638 18.06756152 64.45795647 14.32128906 64.48950195 C11.93913086 64.49603261 9.55696874 64.50128284 7.17480469 64.50512695 C6.05587326 64.51747375 4.93694183 64.52982056 3.78410339 64.5425415 C-1.94481944 64.52618217 -6.05790668 64.36712207 -10.89941406 61.17700195 C-11.02619504 53.43588751 -11.11375818 45.69504079 -11.17407227 37.953125 C-11.19921564 35.31955968 -11.2333349 32.68606414 -11.27661133 30.05273438 C-11.33726617 26.26715887 -11.36562677 22.48250598 -11.38769531 18.6965332 C-11.41350174 17.51928177 -11.43930817 16.34203033 -11.46589661 15.12910461 C-11.46902018 6.02471758 -11.46902018 6.02471758 -8.43139648 2.95703125 C-7.59584229 2.36962158 -6.76028809 1.78221191 -5.89941406 1.17700195 C-4.24305767 -0.47935444 -2.27964337 0.02428086 0 0 Z " fill="#F9FBFC" transform="translate(132.8994140625,245.822998046875)"/>
<path d="M0 0 C1.00023193 0.00523682 2.00046387 0.01047363 3.03100586 0.01586914 C4.1105957 0.0190918 5.19018555 0.02231445 6.30249023 0.02563477 C8.00695313 0.03820312 8.00695313 0.03820312 9.74584961 0.05102539 C11.45611328 0.05779297 11.45611328 0.05779297 13.20092773 0.06469727 C16.02842379 0.07652779 18.85589306 0.09446389 21.68334961 0.11352539 C22.34334961 4.40352539 23.00334961 8.69352539 23.68334961 13.11352539 C24.75584961 11.85540039 25.82834961 10.59727539 26.93334961 9.30102539 C29.31291796 6.50960867 31.60366655 4.13059054 34.68334961 2.11352539 C35.34334961 2.11352539 36.00334961 2.11352539 36.68334961 2.11352539 C36.68334961 1.45352539 36.68334961 0.79352539 36.68334961 0.11352539 C43.28334961 0.11352539 49.88334961 0.11352539 56.68334961 0.11352539 C56.68334961 7.70352539 56.68334961 15.29352539 56.68334961 23.11352539 C47.18334961 24.73852539 47.18334961 24.73852539 44.23999023 25.20581055 C37.96188453 26.3743351 33.1890222 28.48314285 28.68334961 33.11352539 C24.46831311 40.62783153 24.53370597 49.37835976 24.40209961 57.78149414 C24.38369019 58.69755936 24.36528076 59.61362457 24.34631348 60.55744934 C24.28793837 63.47191348 24.23502075 66.3864352 24.18334961 69.30102539 C24.13152278 72.19775761 24.07830179 75.09442582 24.02038574 77.99104309 C23.9844922 79.78645635 23.95191524 81.5819406 23.92346191 83.37748718 C23.79082328 90.02144413 23.2385174 96.45151193 22.68334961 103.11352539 C14.10334961 103.11352539 5.52334961 103.11352539 -3.31665039 103.11352539 C-3.33919909 89.83164827 -3.35756413 76.54978377 -3.36846256 63.26789188 C-3.37369197 57.10127619 -3.38079066 50.93467421 -3.39208984 44.76806641 C-3.40291668 38.82236533 -3.40892679 32.8766775 -3.41152763 26.93096733 C-3.41338225 24.65705596 -3.41700356 22.38314535 -3.42238045 20.10923958 C-3.42958817 16.93625419 -3.43064145 13.76332423 -3.43017578 10.59033203 C-3.43377106 9.64015198 -3.43736633 8.68997192 -3.44107056 7.71099854 C-3.42900818 0.16803549 -3.42900818 0.16803549 0 0 Z " fill="#112851" transform="translate(1398.316650390625,225.886474609375)"/>
<path d="M0 0 C7.92 0 15.84 0 24 0 C25.32678517 2.65357035 25.59532007 5.1973391 26.0625 8.125 C26.23910156 9.22070312 26.41570313 10.31640625 26.59765625 11.4453125 C26.79681641 12.70988281 26.79681641 12.70988281 27 14 C27.4125 13.40832031 27.825 12.81664062 28.25 12.20703125 C35.86214569 1.79130512 35.86214569 1.79130512 42 0 C48.0168585 -0.56125856 53.95942325 -0.22208003 60 0 C60 7.59 60 15.18 60 23 C57.89625 23.2475 55.7925 23.495 53.625 23.75 C43.74213842 25.20600181 36.84715897 27.1267742 30.27734375 34.90234375 C27.79777984 38.97428816 27.84782773 43.49994704 27.70288086 48.16723633 C27.66291489 49.38812454 27.62294891 50.60901276 27.58177185 51.86689758 C27.52389244 53.82963875 27.52389244 53.82963875 27.46484375 55.83203125 C27.42179783 57.19253175 27.37838113 58.55302056 27.33460999 59.91349792 C27.22077772 63.48242582 27.11196397 67.05148953 27.00421143 70.62060547 C26.89322095 74.26734844 26.77746169 77.91393973 26.66210938 81.56054688 C26.43675129 88.70689145 26.2171383 95.85340025 26 103 C17.42 103 8.84 103 0 103 C0 69.01 0 35.02 0 0 Z " fill="#0F2650" transform="translate(910,226)"/>
<path d="M0 0 C7.35718162 4.14489106 12.34316661 10.01172574 14.94140625 18.09375 C14.94140625 20.07375 14.94140625 22.05375 14.94140625 24.09375 C-1.88859375 24.09375 -18.71859375 24.09375 -36.05859375 24.09375 C-34.14375214 14.51954196 -31.48744027 7.16487025 -23.33984375 1.3984375 C-15.93062172 -2.83902853 -7.90991758 -3.4516004 0 0 Z " fill="#F4F5F7" transform="translate(579.05859375,242.90625)"/>
<path d="M0 0 C5.24258567 3.73597852 10.79966863 9.1344935 13.69921875 14.93359375 C13.69921875 18.23359375 13.69921875 21.53359375 13.69921875 24.93359375 C-2.47078125 24.93359375 -18.64078125 24.93359375 -35.30078125 24.93359375 C-34.13641211 14.45427153 -32.29880283 9.88555993 -24.42578125 3.4453125 C-17.61418811 -1.40043483 -7.86795207 -3.64677575 0 0 Z " fill="#F4F5F7" transform="translate(1340.30078125,242.06640625)"/>
<path d="M0 0 C6.93 0 13.86 0 21 0 C21 6.93 21 13.86 21 21 C16.71 21 12.42 21 8 21 C8 20.34 8 19.68 8 19 C10.97 19 13.94 19 17 19 C17 14.05 17 9.1 17 4 C11.72 4 6.44 4 1 4 C0.67 2.68 0.34 1.36 0 0 Z " fill="#0E1A42" transform="translate(876,308)"/>
<path d="M0 0 C5.61 0 11.22 0 17 0 C17 0.66 17 1.32 17 2 C12.71 2 8.42 2 4 2 C4 6.29 4 10.58 4 15 C7.96 15 11.92 15 16 15 C16 16.32 16 17.64 16 19 C10.72 19 5.44 19 0 19 C0 12.73 0 6.46 0 0 Z " fill="#232E4F" transform="translate(1202,226)"/>
<path d="M0 0 C1.60294922 0.15275391 1.60294922 0.15275391 3.23828125 0.30859375 C4.45064453 0.43427734 4.45064453 0.43427734 5.6875 0.5625 C5.6875 1.2225 5.6875 1.8825 5.6875 2.5625 C1.0675 2.5625 -3.5525 2.5625 -8.3125 2.5625 C-8.3125 7.1825 -8.3125 11.8025 -8.3125 16.5625 C-4.3525 16.5625 -0.3925 16.5625 3.6875 16.5625 C3.6875 17.5525 3.6875 18.5425 3.6875 19.5625 C-1.2625 19.5625 -6.2125 19.5625 -11.3125 19.5625 C-11.3125 13.2925 -11.3125 7.0225 -11.3125 0.5625 C-6.98115037 -0.30376993 -4.28381602 -0.42367411 0 0 Z " fill="#1F2C4D" transform="translate(841.3125,225.4375)"/>
<path d="M0 0 C0.39333773 3.3433707 0.03861956 4.92739523 -1.5625 7.9375 C-5.02758679 12.29107058 -8.4970121 16.25442913 -13.9375 17.875 C-14.618125 17.91625 -15.29875 17.9575 -16 18 C-13.76965527 12.80626018 -10.87416012 9.47217304 -6.875 5.625 C-6.32457031 5.07972656 -5.77414063 4.53445312 -5.20703125 3.97265625 C-1.15472274 0 -1.15472274 0 0 0 Z " fill="#2C62C9" transform="translate(196,59)"/>
<path d="M0 0 C1.32 1.32 2.64 2.64 4 4 C0.45939675 8.80510441 0.45939675 8.80510441 -2.0625 9.875 C-4.20051335 10.84517374 -4.20051335 10.84517374 -4.828125 13.1640625 C-4.96734375 13.97617188 -5.1065625 14.78828125 -5.25 15.625 C-5.39953125 16.44226563 -5.5490625 17.25953125 -5.703125 18.1015625 C-5.80109375 18.72804687 -5.8990625 19.35453125 -6 20 C-6.33 20 -6.66 20 -7 20 C-7.38250931 12.85982618 -6.65179451 7.0306223 -1.8125 1.5 C-1.214375 1.005 -0.61625 0.51 0 0 Z " fill="#0E1C44" transform="translate(1475,232)"/>
</svg>
